Patient4_TMGait_0pt8_01_left_30_EMG.mot
version=1
nRows=39
nColumns=33
inDegrees=no
endheader
time	1LAddLong	2LGlutMax	3LGlutMed	4LIliopsoas	5LSemiMemb	6LBicFemLong	7LRecFem	8LVastMed	9LVastLat	10LGasMed	11LTibAnt	12lTibPost	13LPeroneusLong	14LSol	15LExtDigLong	16LFlexDigLong	17RAddLong	18RGlutMax	19RGlutMed	20RIliopsoas	21RSemiMemb	22RBicFemLong	23RRecFem	24RVastMed	25RVastLat	26RGasMed	27RTibAnt	28RTibPost	29RPeroneusLong	30RSol	31RExtDigLong	32RFlexDigLong
34.153	0.020447	0.4631	-0.095825	0.015717	0.049744	-0.10346	-0.023041	0.006104	0.17578	-0.010834	-0.001068	0.014954	0.00946	0.17517	-0.34668	0.010529	0.00824	0.095367	-0.36102	0.000458	-0.13641	0.019836	0.037842	0.020905	0.036621	-0.019226	-0.009308	-0.039978	0.06134	-0.009918	0.014343	-0.00946
34.154	0.025024	0.50613	-0.081482	0.013885	0.071716	-0.086823	-0.033417	-0.001221	0.18799	-0.001831	-0.020752	0.007172	0.038147	0.040131	-0.20691	0.011139	0.010223	0.15121	-0.22095	-0.022583	-0.098114	-0.020447	-0.063324	-0.029755	-0.025024	0.007172	0.006409	-0.023956	0.12253	-0.39764	0.011749	-0.012817
34.155	0.033875	0.48309	-0.073547	0.00824	0.050812	-0.05661	-0.045929	0.000458	0.16907	0.001984	-0.066528	-0.002289	0.063324	0.035095	-0.23117	0.004425	0.002747	0.112	0.056305	-0.03418	-0.036926	-0.035706	-0.056915	-0.044098	-0.014648	-0.001526	0.024261	0.007782	0.017242	-0.5835	0.011902	-0.007019
34.156	0.019684	0.50217	-0.078278	0.002289	0.024414	-0.015564	-0.035858	0.006256	0.177	-0.012817	-0.014343	0.002594	0.096893	0.13657	-0.13718	-0.002747	-0.00885	0.092468	0.30975	0.02243	0.024261	-0.048523	-0.043335	0.010529	-0.009308	0.009766	0.011139	0.043182	0.001221	-0.21637	0.017395	-0.005493
34.157	0.010071	0.50186	-0.077362	-0.010986	-0.020905	0.026855	-0.015259	0.005798	0.15595	-0.029144	0.036011	0.001984	0.043488	0.12817	-0.068665	-0.005035	-0.005341	0.20767	0.43915	-0.001526	0.013123	-0.030518	0.018463	-0.029755	-0.000763	0.014038	-0.000305	0.064392	0.103	0.30716	0.013123	0.001831
34.158	0.007019	0.52917	-0.099792	0.006561	-0.04425	0.02182	-0.014954	0.00824	0.15106	-0.020599	0.029297	0.005646	-0.001526	-0.012665	-0.004883	-0.001831	0.00885	0.23407	0.43778	-0.14358	-0.010834	-0.027466	0.070648	-0.041046	-0.005493	-0.027466	-0.02594	0.003815	-0.28091	-0.029602	0.011444	-0.002747
34.159	0.005341	0.51071	-0.099487	0.013428	-0.029907	-0.02594	-0.026093	0.010529	0.15869	-0.046997	0.018005	0.005493	0.005798	0.031738	0.078278	-0.006256	0.015564	0.24628	0.75775	-0.2066	-0.029755	-0.046844	0.065155	-0.060425	-0.013275	-0.003662	0.095215	-0.007477	-0.062561	-0.20905	0.011902	-0.009918
34.16	0.009766	0.49896	-0.12619	-0.001526	0.025024	-0.068207	-0.052338	0.001831	0.15823	-0.059967	0.019836	0.001068	0.016632	-0.14191	0.063934	0.00351	0.006409	0.24567	0.31479	-0.083771	-0.046387	-0.02594	0.095062	-0.051727	-0.026093	0.021973	0.032654	-0.018005	0.18265	-0.11749	0.009003	-0.010834
34.161	0.024872	0.50079	-0.12299	0.009003	0.057526	-0.075226	-0.066681	-0.002594	0.15167	-0.050049	0.007477	0.010834	0.014801	-0.4303	0.033722	-0.000763	-0.004272	0.20248	0.000763	-0.032501	-0.03418	-0.00946	0.068512	-0.030975	-0.028076	0.021515	0.14984	-0.012665	0.38269	0.031586	0.011139	-0.014648
34.162	0.034485	0.43869	-0.061493	-0.001221	0.022736	-0.06134	-0.066071	0.002441	0.15076	-0.051575	0.041504	0.007172	0.010223	-0.27741	-0.003967	0.001984	-0.002289	0.14954	0.18372	0.074005	-0.041504	0.021667	0.093842	0.002747	0.032806	0.01236	0.24948	-0.015106	0.12726	0.006714	0.014191	-0.011139
34.163	0.033112	0.40802	-0.086365	0.008392	0.035553	-0.054169	-0.052948	0.003815	0.15381	-0.08194	0.002441	0.007172	0.014801	-0.11261	-0.014648	-0.008087	-0.00473	0.15335	-0.12131	0.058594	-0.014038	0.00412	0.094452	0.042114	-0.021515	0.001526	0.3096	-0.018005	-0.27451	-0.03479	0.009918	-0.011139
34.164	0.02533	0.38025	-0.12543	0.015869	0.036774	-0.02594	-0.046692	0.005646	0.15656	-0.10391	-0.041504	0.005798	-0.005035	-0.068359	-0.009003	-0.003662	0.00351	0.14358	0.04364	-0.035858	-0.011902	0.026093	0.05249	-0.050812	-0.057526	-0.018311	0.3508	-0.011444	-0.003052	-0.055847	0.011902	-0.010376
34.165	0.013885	0.3627	-0.10986	-0.004425	0.014343	-0.002441	-0.038605	0.008392	0.15564	-0.075531	-0.081482	0.003967	-0.005188	0.04776	-0.008698	0.002747	-0.006561	0.21545	0.17578	-0.091248	-0.039978	0.014954	-0.10162	-0.10208	0.081177	-0.010834	0.46875	-0.01236	-0.5986	-0.050354	0.007629	-0.015106
34.166	0.010223	0.31479	-0.039825	-0.007782	-0.022278	0.020447	-0.044708	0.009613	0.12955	-0.047302	-0.047607	0.007324	-0.008392	0.14679	0.028534	0.013885	0.003204	0.29129	0.1918	-0.086517	-0.051727	0.01358	-0.22339	-0.093079	0.1413	-0.004425	0.13092	-0.014191	-0.52872	-0.059967	0.011292	-0.007782
34.167	0.00885	0.28702	-0.034027	-0.003052	-0.08255	0.020447	-0.052948	0.005798	0.11414	-0.035858	0.018921	-0.006561	0.042725	0.17242	0.032501	0.007782	0.007782	0.30533	0.60516	-0.068817	-0.061035	-0.015259	-0.039368	-0.054321	0.06958	-0.005341	-0.40985	-0.019073	0.11047	-0.097809	0.008392	-0.009613
34.168	-0.01236	0.24765	-0.035095	-0.003357	-0.13001	0.009308	-0.055695	0.017242	0.11063	-0.006409	0.067596	0.007629	0.001373	0.16693	0.020599	0.016022	0.005188	0.29007	0.2124	-0.093689	-0.014343	-0.03479	0.023804	0.017853	0.052032	-0.001678	-0.46799	-0.013123	0.35461	-0.11215	0.008087	-0.014801
34.169	0.003815	0.23956	-0.033112	0.011139	-0.090027	-0.008545	-0.045166	0.016022	0.10681	-0.012512	0.070953	-0.003662	-0.044403	0.15259	0.020294	0.014191	0.00885	0.21591	0.11917	-0.11307	0.013275	-0.064087	0.053864	0.014343	0.03891	0.000305	-0.17212	-0.016785	0.064392	-0.071869	0.003204	-0.008545
34.17	0.018005	0.21713	-0.028076	0.006561	0.008545	-0.079193	-0.0383	0.010986	0.10498	-0.028229	0.074005	0.001373	-0.02533	0.12848	-0.001984	0.010223	0.05127	0.20309	0.4689	-0.1152	0.00946	-0.1004	0.13534	-0.070953	0.008392	0.007935	-0.3978	-0.021362	0.14145	0.071411	0.009613	0.000153
34.171	0.028381	0.15121	-0.040283	0.006104	0.062103	-0.094299	-0.047455	0.017548	0.099792	-0.07309	0.061798	0.001678	0.00351	0.099182	0.000458	-0.005341	0.093231	0.10101	0.6134	-0.11124	-0.08606	-0.094299	0.25925	-0.14694	-0.045013	0.018921	-0.71732	0.002289	-0.19486	0.14435	0.011597	0.000763
34.172	0.018616	0.12131	-0.021057	0.008392	0.09552	-0.040283	-0.026855	0.00351	0.073395	-0.085602	0.05249	0.005188	0.006561	0.077362	0.014496	0.00061	0.06897	0.063934	0.495	0.003967	-0.20203	-0.05249	0.22903	-0.12177	-0.050659	0.030823	-0.52231	0.006104	-0.46295	-0.037231	0.006561	0.006104
34.173	0.024261	0.11948	0.01709	0.004272	0.095673	0.024567	-0.025787	0.007782	0.064087	-0.090637	0.045776	-0.002289	0.030518	0.067139	0.021362	-0.002594	0.015411	-0.067444	0.18707	0.14725	-0.20859	0.1474	0.13123	-0.063019	-0.054932	0.034485	-0.39887	-0.00412	0.16388	-0.17975	0.000763	-0.009918
34.174	0.007477	0.079346	0.016022	-0.00061	0.074005	0.041504	-0.047913	-0.009003	0.072937	-0.086365	-0.004883	0.002441	0.087738	0.048828	0.004425	0.010681	-0.0177	-0.056763	0.68634	0.25818	0.13275	0.12985	-0.04837	-0.10025	-0.030518	0.035706	-0.31067	-0.002289	0.31235	-0.21271	0.011597	0.004272
34.175	0.015869	0.039063	0.020294	-0.002136	0.021667	0.033417	-0.036011	0.004883	0.056915	-0.075226	-0.023499	0.006409	0.048676	0.020905	-0.00885	0.002899	-0.090332	-0.088806	0.78445	0.20813	0.057678	0.13062	-0.32074	-0.003815	0.066528	0.015869	-0.1831	-0.005646	0.29785	0.021973	0.004578	-0.003967
34.176	0.007324	0.034637	0.016174	0.010986	-0.003357	-0.00824	-0.038147	0.012054	0.049896	-0.03952	0.001831	-0.004883	0.007019	-0.001984	-0.001678	0.00351	-0.092163	-0.18478	0.5098	0.19241	-0.088806	0.13992	-0.39368	0.063629	0.24536	-0.001831	-0.16327	-0.005341	0.16739	0.23605	0.006104	-0.005188
34.177	0.010071	0.027771	0.008545	0.004272	0.037231	-0.021057	-0.024109	0.003967	0.040894	-0.012054	0.010986	0.006714	0.002594	0.038605	-0.000916	0.001373	-0.049744	-0.27329	-0.11643	0.11246	0.031281	0.046082	-0.08194	0.098267	0.22537	-0.016479	-0.15625	-0.013428	-0.056305	0.009003	0.008392	-0.010986
34.178	0.00946	0.04425	-0.010376	0.001373	0.053253	0.005035	-0.045776	0.020447	0.047455	-0.005188	0.00824	0.000763	-0.004578	0.015259	0.002289	0.000916	-0.023804	-0.35568	-0.23132	0.009308	-0.015411	0.027466	0.1355	0.088043	0.087585	-0.011139	-0.063782	-0.013275	-0.121	-0.082092	0.006409	-0.014496
34.179	0.010834	0.035706	-0.057373	0.011749	0.050964	0.0354	-0.041046	0.011139	0.066986	-0.003052	0.002441	0.007019	-0.013733	0.014343	-0.009308	0.00824	-0.025024	-0.34515	0.070038	-0.10025	-0.02533	-0.012054	0.026093	0.051575	-0.03891	-0.007935	0.069275	-0.005341	-0.18814	0.099487	0.003357	-0.018768
34.18	0.009613	0.039368	-0.001678	0.005798	0.055847	0.061035	-0.059509	0.003967	0.06546	0.001831	0.006714	0.004425	-0.028839	0.009308	-0.011444	-0.011139	-0.019836	-0.32181	0.13214	-0.085754	0.008392	-0.026855	-0.17471	0.059814	-0.1004	-0.013275	-0.006714	0.004883	0.11231	0.095367	0.003052	-0.019684
34.181	0.009155	-0.00824	0.039215	-0.006409	0.01236	0.041656	-0.083618	0.004272	0.073547	-0.008698	0.0177	-0.00061	-0.050964	0.062714	-0.010681	-0.007477	-0.009613	-0.41519	0.095978	-0.015869	-0.007629	-0.026093	-0.055847	0.05188	-0.083618	-0.021515	-0.041199	-0.010071	0.33508	0.015717	0.004883	-0.009918
34.182	0.016327	-0.037689	-0.070648	0.00946	-0.044403	-0.015411	-0.066986	0.005493	0.071411	-0.011902	0.015869	0.003204	-0.032959	-0.010681	0.008545	-0.00473	0.003662	-0.45349	-0.16312	-0.033417	-0.048523	-0.009003	0.052338	0.008698	-0.014801	-0.047302	-0.040894	-0.008392	-0.017853	0.029602	0.00061	-0.016785
34.183	0.015106	-0.00885	-0.095673	0.01297	-0.018616	-0.031891	-0.061188	0.010986	0.074158	-0.023804	0.006409	0.007477	0.031433	-0.10971	-0.008087	-0.00824	0.003204	-0.4509	0.12131	-0.057373	-0.042572	-0.019073	0.006866	0.015717	0.094604	-0.045929	0.03067	-0.001984	-0.29556	0.34378	0.006256	-0.009308
34.184	0.011902	-0.013885	-0.11963	0.012665	-0.010071	-0.022278	-0.075073	0.003967	0.075989	-0.021973	0.010223	-0.001068	0.041504	-0.10132	-0.019531	-0.001373	-0.001221	-0.39063	0.38193	-0.012207	-0.071869	-0.010986	0.039063	-0.02182	0.032349	-0.028839	0.015106	-0.003662	-0.37796	0.063477	0.002899	-0.012207
34.185	-0.003815	-0.029755	-0.046539	0.010529	0.001373	-0.027466	-0.059509	0.016632	0.063477	-0.018616	0	0.00473	0.046082	-0.07843	-0.014343	-0.012817	-0.006866	-0.40237	-0.10407	-0.012817	-0.10223	-0.015869	0.29709	0.040741	-0.012665	-0.012817	-0.15793	-0.00824	-0.025024	-0.15182	0.003815	-0.010071
34.186	-0.019836	-0.025177	-0.007172	0.010834	-0.00824	-0.013428	-0.064697	0.012207	0.06012	-0.026093	0.004883	0.001221	0.017395	-0.072327	-0.014954	-0.009308	0.002289	-0.41107	-0.53131	-0.054626	-0.097656	-0.001526	0.14755	0.078735	0.044708	-0.008698	0.14114	-0.011597	0.32028	0.12772	-0.001678	-0.013885
34.187	-0.015564	-0.040436	0.13992	0.007172	-0.029602	-0.002441	-0.053558	0.010223	0.06424	-0.023041	0.005035	0.009918	0.015259	-0.055695	-0.003357	-0.019531	-0.014801	-0.40573	-0.015717	-0.095978	-0.010376	-0.018005	-0.093842	-0.000916	-0.001831	-0.004578	0.26154	-0.006866	0.25803	0.224	-0.002441	-0.007477
34.188	-0.002136	-0.044861	0.10635	-0.003204	-0.053406	0.010071	-0.059204	0.001373	0.056915	-0.022888	0.016174	-0.001984	-0.010834	-0.055695	0.006256	-0.009155	0.010681	-0.32318	0.59494	-0.00885	0.027161	-0.042725	-0.27725	-0.15366	-0.046997	0.00351	0.31723	-0.005188	-0.39017	0.097504	0.000916	-0.011444
34.189	0.011292	-0.075684	0.088959	0.007019	-0.043793	-0.039215	-0.074005	0.012512	0.056458	-0.022888	0.012054	0.002747	-0.003357	-0.067291	0.009003	-0.013123	0.016479	-0.40039	-0.28885	0.04837	-0.021362	-0.035858	-0.5101	-0.24597	-0.035858	-0.004578	0.42297	-0.005493	0.24139	0.071564	0.003204	-0.004883
34.19	0.02182	-0.069733	0.071106	0.003967	-0.075836	0.014191	-0.067444	0.002441	0.04715	-0.038605	0.001831	0.009155	0.023193	-0.085907	-0.003357	-0.001373	0.006866	-0.37842	-0.13397	0.093231	-0.033417	-0.040588	-0.513	-0.21316	0.10162	-0.002747	0.65277	-0.008087	0.35553	-0.049133	-0.001678	-0.00885
34.191	0.02243	-0.065918	0.051422	0.019226	-0.068512	0.059967	-0.06958	0.005798	0.042267	-0.043945	0.000916	0.007324	0.027771	-0.089722	-0.011292	-0.000153	0.005493	-0.3801	0.015106	0.09613	-0.057678	-0.038757	-0.19974	-0.066833	0.090332	0.010986	0.70404	-0.003052	0.36011	-0.21057	0.001984	-0.007019
